<svg width="37" height="37" viewBox="0 0 37 37" fill="none" xmlns="http://www.w3.org/2000/svg">
<mask id="mask0_1819_1329" style="mask-type:alpha" maskUnits="userSpaceOnUse" x="0" y="0" width="37" height="37">
<rect width="37" height="37" fill="#D9D9D9"/>
</mask>
<g mask="url(#mask0_1819_1329)">
<path d="M24.666 20.0416L18.2681 13.7978C17.4716 13.027 16.7971 12.1727 16.2447 11.2348C15.6922 10.297 15.416 9.27561 15.416 8.17075C15.416 6.75756 15.9106 5.55634 16.8999 4.56711C17.8891 3.57787 19.0903 3.08325 20.5035 3.08325C21.3257 3.08325 22.0966 3.25669 22.816 3.60356C23.5355 3.95044 24.1521 4.41936 24.666 5.01034C25.1799 4.41936 25.7966 3.95044 26.516 3.60356C27.2355 3.25669 28.0063 3.08325 28.8285 3.08325C30.2417 3.08325 31.4429 3.57787 32.4322 4.56711C33.4214 5.55634 33.916 6.75756 33.916 8.17075C33.916 9.27561 33.6462 10.297 33.1066 11.2348C32.5671 12.1727 31.899 13.027 31.1025 13.7978L24.666 20.0416ZM24.666 15.7249L28.8671 11.601C29.3553 11.1128 29.8049 10.5925 30.216 10.04C30.6271 9.48759 30.8327 8.8645 30.8327 8.17075C30.8327 7.60547 30.64 7.13013 30.2546 6.74471C29.8691 6.35929 29.3938 6.16659 28.8285 6.16659C28.4688 6.16659 28.1283 6.23725 27.8072 6.37856C27.486 6.51988 27.2098 6.73186 26.9785 7.0145L24.666 9.7895L22.3535 7.0145C22.1223 6.73186 21.8461 6.51988 21.5249 6.37856C21.2037 6.23725 20.8632 6.16659 20.5035 6.16659C19.9382 6.16659 19.4629 6.35929 19.0775 6.74471C18.6921 7.13013 18.4993 7.60547 18.4993 8.17075C18.4993 8.8645 18.7049 9.48759 19.116 10.04C19.5271 10.5925 19.9768 11.1128 20.465 11.601L24.666 15.7249ZM10.791 28.5208L21.5056 31.4499L30.6785 28.5978C30.55 28.3666 30.3638 28.1675 30.1197 28.0004C29.8756 27.8334 29.5993 27.7499 29.291 27.7499H21.5056C20.8118 27.7499 20.2594 27.7242 19.8483 27.6728C19.4372 27.6214 19.0132 27.5187 18.5764 27.3645L14.9921 26.1697L15.84 23.1635L18.9618 24.2041C19.3987 24.3326 19.9125 24.4353 20.5035 24.5124C21.0945 24.5895 21.9681 24.6409 23.1243 24.6666C23.1243 24.3839 23.0408 24.1142 22.8738 23.8572C22.7068 23.6003 22.5077 23.4333 22.2764 23.3562L13.2577 20.0416H10.791V28.5208ZM1.54102 33.9166V16.9583H13.2577C13.4375 16.9583 13.6174 16.9775 13.7973 17.0161C13.9771 17.0546 14.1441 17.0996 14.2983 17.151L23.3556 20.5041C24.2035 20.8124 24.8908 21.352 25.4176 22.1228C25.9443 22.8937 26.2077 23.7416 26.2077 24.6666H29.291C30.5757 24.6666 31.6678 25.0905 32.5671 25.9385C33.4664 26.7864 33.916 27.9041 33.916 29.2916V30.8333L21.5827 34.6874L10.791 31.6812V33.9166H1.54102ZM4.62435 30.8333H7.70768V20.0416H4.62435V30.8333Z" fill="#3B3B3B"/>
</g>
</svg>
